<?xml version="1.0" encoding="UTF-8" standalone="no"?>
<svg width="25px" height="25px" viewBox="0 0 25 25" version="1.1" xmlns="http://www.w3.org/2000/svg" xmlns:xlink="http://www.w3.org/1999/xlink" xmlns:sketch="http://www.bohemiancoding.com/sketch/ns">
    <!-- Generator: Sketch 3.2.2 (9983) - http://www.bohemiancoding.com/sketch -->
    <title>fa-envelope-o</title>
    <desc>Created with Sketch.</desc>
    <defs></defs>
    <g id="Introduction" stroke="none" stroke-width="1" fill="none" fill-rule="evenodd" sketch:type="MSPage">
        <g id="Artboard-2" sketch:type="MSArtboardGroup" transform="translate(-215.000000, -322.000000)" fill="#808080">
            <g id="fa-envelope-o" sketch:type="MSLayerGroup" transform="translate(215.000000, 322.000000)">
                <path d="M12.5,25 C19.4035594,25 25,19.4035594 25,12.5 C25,5.59644063 19.4035594,0 12.5,0 C5.59644063,0 0,5.59644063 0,12.5 C0,19.4035594 5.59644063,25 12.5,25 Z M3.82,19.1966667 C4.15666667,19.515 4.54916667,19.6833333 4.99833333,19.6833333 L20.3733333,19.6833333 C20.8225,19.6833333 21.215,19.515 21.5516667,19.1966667 C21.87,18.86 22.0383333,18.4675 22.0383333,18.0183333 L22.0383333,6.66416667 C22.0383333,6.21583333 21.87,5.8225 21.5516667,5.48583333 C21.215,5.16833333 20.8225,5 20.3733333,5 L4.99833333,5 C4.54916667,5 4.15666667,5.16833333 3.82,5.48583333 C3.50166667,5.8225 3.33333333,6.21583333 3.33333333,6.66416667 L3.33333333,18.0183333 C3.33333333,18.4675 3.50166667,18.86 3.82,19.1966667 L3.82,19.1966667 Z M4.66166667,10.0125 C4.88583333,10.2558333 5.12916667,10.48 5.39083333,10.6858333 C7.2425,12.1266667 8.73916667,13.305 9.8425,14.2216667 C10.1983333,14.5208333 10.4783333,14.7633333 10.7033333,14.9133333 C10.9275,15.0816667 11.2266667,15.25 11.6008333,15.4183333 C11.975,15.5866667 12.3491667,15.68 12.6666667,15.68 L12.7041667,15.68 C13.0225,15.68 13.3966667,15.5866667 13.7708333,15.4183333 C14.145,15.25 14.4441667,15.0816667 14.6683333,14.9133333 C14.8925,14.7633333 15.1925,14.5208333 15.5475,14.2216667 C16.6325,13.305 18.1283333,12.1266667 19.9808333,10.6858333 C20.2425,10.48 20.4858333,10.2558333 20.71,10.0125 L20.71,18.0183333 C20.71,18.1116667 20.6725,18.1866667 20.6166667,18.2616667 C20.5416667,18.3175 20.4666667,18.355 20.3733333,18.355 L4.99833333,18.355 C4.90416667,18.355 4.83,18.3175 4.755,18.2616667 C4.69916667,18.1866667 4.66166667,18.1116667 4.66166667,18.0183333 L4.66166667,10.0125 L4.66166667,10.0125 Z M4.755,6.42166667 C4.83,6.365 4.90416667,6.3275 4.99833333,6.3275 L20.3733333,6.3275 C20.4291667,6.3275 20.4858333,6.3275 20.5233333,6.34666667 C20.5608333,6.365 20.5975,6.4025 20.6166667,6.44 C20.635,6.45916667 20.6541667,6.49583333 20.6725,6.53333333 C20.6916667,6.5525 20.71,6.59 20.71,6.66416667 L20.71,6.79583333 L20.71,6.92666667 L20.71,7.0575 C20.71,7.46916667 20.5416667,7.9175 20.2233333,8.4225 C19.9058333,8.9275 19.55,9.33916667 19.1758333,9.63833333 C17.8291667,10.6858333 16.4266667,11.79 14.9866667,12.9491667 C14.9491667,12.9683333 14.8183333,13.08 14.6125,13.2483333 C14.425,13.4166667 14.2566667,13.5475 14.145,13.6416667 C14.0133333,13.735 13.8641667,13.8475 13.6766667,13.9783333 C13.49,14.09 13.3025,14.2025 13.1533333,14.2583333 C12.985,14.315 12.835,14.3525 12.7041667,14.3525 L12.6666667,14.3525 C12.5358333,14.3525 12.3866667,14.315 12.2183333,14.2583333 C12.0683333,14.2025 11.8816667,14.09 11.6941667,13.9783333 C11.5075,13.8475 11.3575,13.735 11.2266667,13.6416667 C11.1141667,13.5475 10.9458333,13.4166667 10.7591667,13.2483333 C10.5533333,13.08 10.4225,12.9683333 10.385,12.9491667 C8.945,11.79 7.54166667,10.6858333 6.195,9.63833333 C5.16666667,8.81583333 4.66166667,7.82416667 4.66166667,6.66416667 C4.66166667,6.57083333 4.69916667,6.49583333 4.755,6.42166667 L4.755,6.42166667 Z" id="Fill-112" sketch:type="MSShapeGroup"></path>
            </g>
        </g>
    </g>
</svg>
