<?xml version="1.0" encoding="UTF-8" standalone="no"?>
<svg width="20px" height="12px" viewBox="0 0 20 12" version="1.1" xmlns="http://www.w3.org/2000/svg" xmlns:xlink="http://www.w3.org/1999/xlink">
    <!-- Generator: Sketch 3.6.1 (26313) - http://www.bohemiancoding.com/sketch -->
    <title>Group Copy 2</title>
    <desc>Created with Sketch.</desc>
    <defs></defs>
    <g id="Page-1" stroke="none" stroke-width="1" fill="none" fill-rule="evenodd" opacity="0.45">
        <g id="Artboard-1" transform="translate(-132.000000, -128.000000)">
            <g id="Group-Copy-2" transform="translate(132.000000, 128.000000)">
                <g id="Biggest-R" transform="translate(7.000000, 0.000000)" fill="#BFD0E0">
                    <rect id="Rectangle-1-Copy-73" x="5" y="1" width="1" height="1"></rect>
                    <rect id="Rectangle-1-Copy-72" x="0" y="6" width="1" height="1"></rect>
                    <rect id="Rectangle-1-Copy-71" x="1" y="6" width="1" height="1"></rect>
                    <rect id="Rectangle-1-Copy-70" x="4" y="2" width="1" height="1"></rect>
                    <rect id="Rectangle-1-Copy-69" x="2" y="0" width="1" height="1"></rect>
                    <rect id="Rectangle-1-Copy-68" x="1" y="0" width="1" height="1"></rect>
                    <rect id="Rectangle-1-Copy-67" x="0" y="3" width="1" height="1"></rect>
                    <rect id="Rectangle-1-Copy-66" x="1" y="4" width="1" height="1"></rect>
                    <rect id="Rectangle-1-Copy-65" x="2" y="6" width="1" height="1"></rect>
                    <rect id="Rectangle-1-Copy-64" x="4" y="5" width="1" height="1"></rect>
                    <rect id="Rectangle-1-Copy-106" x="4" y="3" width="1" height="1"></rect>
                    <rect id="Rectangle-1-Copy-105" x="0" y="5" width="1" height="1"></rect>
                    <rect id="Rectangle-1-Copy-104" x="1" y="2" width="1" height="1"></rect>
                    <rect id="Rectangle-1-Copy-103" x="4" y="4" width="1" height="1"></rect>
                    <rect id="Rectangle-1-Copy-110" x="0" y="2" width="1" height="1"></rect>
                    <rect id="Rectangle-1-Copy-109" x="0" y="4" width="1" height="1"></rect>
                    <rect id="Rectangle-1-Copy-108" x="1" y="3" width="1" height="1"></rect>
                    <rect id="Rectangle-1-Copy-107" x="1" y="5" width="1" height="1"></rect>
                    <rect id="Rectangle-1-Copy-114" x="5" y="2" width="1" height="1"></rect>
                    <rect id="Rectangle-1-Copy-113" x="5" y="4" width="1" height="1"></rect>
                    <rect id="Rectangle-1-Copy-112" x="5" y="3" width="1" height="1"></rect>
                    <rect id="Rectangle-1-Copy-111" x="5" y="5" width="1" height="1"></rect>
                    <rect id="Rectangle-1-Copy-87" x="2" y="7" width="1" height="1"></rect>
                    <rect id="Rectangle-1-Copy-95" x="3" y="7" width="1" height="1"></rect>
                    <rect id="Rectangle-1-Copy-94" x="3" y="6" width="1" height="1"></rect>
                    <rect id="Rectangle-1-Copy-63" x="1" y="7" width="1" height="1"></rect>
                    <rect id="Rectangle-1-Copy-62" x="4" y="7" width="1" height="1"></rect>
                    <rect id="Rectangle-1-Copy-97" x="3" y="8" width="1" height="1"></rect>
                    <rect id="Rectangle-1-Copy-96" x="4" y="8" width="1" height="1"></rect>
                    <rect id="Rectangle-1-Copy-119" x="4" y="11" width="1" height="1"></rect>
                    <rect id="Rectangle-1-Copy-118" x="5" y="11" width="1" height="1"></rect>
                    <rect id="Rectangle-1-Copy-117" x="4" y="9" width="1" height="1"></rect>
                    <rect id="Rectangle-1-Copy-89" x="5" y="9" width="1" height="1"></rect>
                    <rect id="Rectangle-1-Copy-116" x="4" y="10" width="1" height="1"></rect>
                    <rect id="Rectangle-1-Copy-115" x="5" y="10" width="1" height="1"></rect>
                    <rect id="Rectangle-1-Copy-127" x="0" y="8" width="1" height="1"></rect>
                    <rect id="Rectangle-1-Copy-126" x="1" y="8" width="1" height="1"></rect>
                    <rect id="Rectangle-1-Copy-125" x="0" y="11" width="1" height="1"></rect>
                    <rect id="Rectangle-1-Copy-124" x="1" y="11" width="1" height="1"></rect>
                    <rect id="Rectangle-1-Copy-123" x="0" y="9" width="1" height="1"></rect>
                    <rect id="Rectangle-1-Copy-122" x="1" y="9" width="1" height="1"></rect>
                    <rect id="Rectangle-1-Copy-121" x="0" y="10" width="1" height="1"></rect>
                    <rect id="Rectangle-1-Copy-120" x="1" y="10" width="1" height="1"></rect>
                    <rect id="Rectangle-1-Copy-61" x="3" y="0" width="1" height="1"></rect>
                    <rect id="Rectangle-1-Copy-60" x="0" y="0" width="1" height="1"></rect>
                    <rect id="Rectangle-1-Copy-59" x="2" y="0" width="1" height="1"></rect>
                    <rect id="Rectangle-1-Copy-102" x="2" y="1" width="1" height="1"></rect>
                    <rect id="Rectangle-1-Copy-101" x="1" y="1" width="1" height="1"></rect>
                    <rect id="Rectangle-1-Copy-100" x="3" y="1" width="1" height="1"></rect>
                    <rect id="Rectangle-1-Copy-99" x="0" y="1" width="1" height="1"></rect>
                    <rect id="Rectangle-1-Copy-98" x="2" y="1" width="1" height="1"></rect>
                    <rect id="Rectangle-1-Copy-58" x="0" y="7" width="1" height="1"></rect>
                    <rect id="Rectangle-1-Copy-57" x="4" y="6" width="1" height="1"></rect>
                    <rect id="Rectangle-1-Copy-56" x="5" y="6" width="1" height="1"></rect>
                    <rect id="Rectangle-1-Copy-55" x="4" y="1" width="1" height="1"></rect>
                </g>
                <g id="Biggest-R" transform="translate(14.000000, 0.000000)" fill="#BFD0E0">
                    <rect id="Rectangle-1-Copy-73" x="5" y="1" width="1" height="1"></rect>
                    <rect id="Rectangle-1-Copy-72" x="0" y="6" width="1" height="1"></rect>
                    <rect id="Rectangle-1-Copy-71" x="1" y="6" width="1" height="1"></rect>
                    <rect id="Rectangle-1-Copy-70" x="4" y="2" width="1" height="1"></rect>
                    <rect id="Rectangle-1-Copy-69" x="2" y="0" width="1" height="1"></rect>
                    <rect id="Rectangle-1-Copy-68" x="1" y="0" width="1" height="1"></rect>
                    <rect id="Rectangle-1-Copy-67" x="0" y="3" width="1" height="1"></rect>
                    <rect id="Rectangle-1-Copy-66" x="1" y="4" width="1" height="1"></rect>
                    <rect id="Rectangle-1-Copy-65" x="2" y="6" width="1" height="1"></rect>
                    <rect id="Rectangle-1-Copy-64" x="4" y="5" width="1" height="1"></rect>
                    <rect id="Rectangle-1-Copy-106" x="4" y="3" width="1" height="1"></rect>
                    <rect id="Rectangle-1-Copy-105" x="0" y="5" width="1" height="1"></rect>
                    <rect id="Rectangle-1-Copy-104" x="1" y="2" width="1" height="1"></rect>
                    <rect id="Rectangle-1-Copy-103" x="4" y="4" width="1" height="1"></rect>
                    <rect id="Rectangle-1-Copy-110" x="0" y="2" width="1" height="1"></rect>
                    <rect id="Rectangle-1-Copy-109" x="0" y="4" width="1" height="1"></rect>
                    <rect id="Rectangle-1-Copy-108" x="1" y="3" width="1" height="1"></rect>
                    <rect id="Rectangle-1-Copy-107" x="1" y="5" width="1" height="1"></rect>
                    <rect id="Rectangle-1-Copy-114" x="5" y="2" width="1" height="1"></rect>
                    <rect id="Rectangle-1-Copy-113" x="5" y="4" width="1" height="1"></rect>
                    <rect id="Rectangle-1-Copy-112" x="5" y="3" width="1" height="1"></rect>
                    <rect id="Rectangle-1-Copy-111" x="5" y="5" width="1" height="1"></rect>
                    <rect id="Rectangle-1-Copy-87" x="2" y="7" width="1" height="1"></rect>
                    <rect id="Rectangle-1-Copy-95" x="3" y="7" width="1" height="1"></rect>
                    <rect id="Rectangle-1-Copy-94" x="3" y="6" width="1" height="1"></rect>
                    <rect id="Rectangle-1-Copy-63" x="1" y="7" width="1" height="1"></rect>
                    <rect id="Rectangle-1-Copy-62" x="4" y="7" width="1" height="1"></rect>
                    <rect id="Rectangle-1-Copy-97" x="3" y="8" width="1" height="1"></rect>
                    <rect id="Rectangle-1-Copy-96" x="4" y="8" width="1" height="1"></rect>
                    <rect id="Rectangle-1-Copy-119" x="4" y="11" width="1" height="1"></rect>
                    <rect id="Rectangle-1-Copy-118" x="5" y="11" width="1" height="1"></rect>
                    <rect id="Rectangle-1-Copy-117" x="4" y="9" width="1" height="1"></rect>
                    <rect id="Rectangle-1-Copy-89" x="5" y="9" width="1" height="1"></rect>
                    <rect id="Rectangle-1-Copy-116" x="4" y="10" width="1" height="1"></rect>
                    <rect id="Rectangle-1-Copy-115" x="5" y="10" width="1" height="1"></rect>
                    <rect id="Rectangle-1-Copy-127" x="0" y="8" width="1" height="1"></rect>
                    <rect id="Rectangle-1-Copy-126" x="1" y="8" width="1" height="1"></rect>
                    <rect id="Rectangle-1-Copy-125" x="0" y="11" width="1" height="1"></rect>
                    <rect id="Rectangle-1-Copy-124" x="1" y="11" width="1" height="1"></rect>
                    <rect id="Rectangle-1-Copy-123" x="0" y="9" width="1" height="1"></rect>
                    <rect id="Rectangle-1-Copy-122" x="1" y="9" width="1" height="1"></rect>
                    <rect id="Rectangle-1-Copy-121" x="0" y="10" width="1" height="1"></rect>
                    <rect id="Rectangle-1-Copy-120" x="1" y="10" width="1" height="1"></rect>
                    <rect id="Rectangle-1-Copy-61" x="3" y="0" width="1" height="1"></rect>
                    <rect id="Rectangle-1-Copy-60" x="0" y="0" width="1" height="1"></rect>
                    <rect id="Rectangle-1-Copy-59" x="2" y="0" width="1" height="1"></rect>
                    <rect id="Rectangle-1-Copy-102" x="2" y="1" width="1" height="1"></rect>
                    <rect id="Rectangle-1-Copy-101" x="1" y="1" width="1" height="1"></rect>
                    <rect id="Rectangle-1-Copy-100" x="3" y="1" width="1" height="1"></rect>
                    <rect id="Rectangle-1-Copy-99" x="0" y="1" width="1" height="1"></rect>
                    <rect id="Rectangle-1-Copy-98" x="2" y="1" width="1" height="1"></rect>
                    <rect id="Rectangle-1-Copy-58" x="0" y="7" width="1" height="1"></rect>
                    <rect id="Rectangle-1-Copy-57" x="4" y="6" width="1" height="1"></rect>
                    <rect id="Rectangle-1-Copy-56" x="5" y="6" width="1" height="1"></rect>
                    <rect id="Rectangle-1-Copy-55" x="4" y="1" width="1" height="1"></rect>
                </g>
                <g id="Biggest-J" fill="#90D7FF">
                    <rect id="Rectangle-1-Copy-82" x="4" y="0" width="1" height="1"></rect>
                    <rect id="Rectangle-1-Copy-79" x="5" y="0" width="1" height="1"></rect>
                    <rect id="Rectangle-1-Copy-78" x="3" y="0" width="1" height="1"></rect>
                    <rect id="Rectangle-1-Copy-76" x="4" y="0" width="1" height="1"></rect>
                    <rect id="Rectangle-1-Copy-75" x="5" y="1" width="1" height="1"></rect>
                    <rect id="Rectangle-1-Copy-74" x="3" y="0" width="1" height="1"></rect>
                    <path d="M4,1 L5,1 L5,2 L4,2 L4,1 Z" id="Rectangle-1-Copy-88"></path>
                    <path d="M3,1 L4,1 L4,2 L3,2 L3,1 Z" id="Rectangle-1-Copy-136"></path>
                    <rect id="Rectangle-1-Copy-134" x="4" y="11" width="1" height="1"></rect>
                    <rect id="Rectangle-1-Copy-133" x="5" y="10" width="1" height="1"></rect>
                    <rect id="Rectangle-1-Copy-132" x="3" y="11" width="1" height="1"></rect>
                    <rect id="Rectangle-1-Copy-131" x="4" y="11" width="1" height="1"></rect>
                    <rect id="Rectangle-1-Copy-130" x="2" y="11" width="1" height="1"></rect>
                    <rect id="Rectangle-1-Copy-129" x="3" y="11" width="1" height="1"></rect>
                    <path d="M1,11 L2,11 L2,12 L1,12 L1,11 Z" id="Rectangle-1-Copy-128"></path>
                    <rect id="Rectangle-1-Copy-142" x="4" y="10" width="1" height="1"></rect>
                    <rect id="Rectangle-1-Copy-141" x="3" y="10" width="1" height="1"></rect>
                    <rect id="Rectangle-1-Copy-140" x="4" y="10" width="1" height="1"></rect>
                    <rect id="Rectangle-1-Copy-139" x="2" y="10" width="1" height="1"></rect>
                    <rect id="Rectangle-1-Copy-138" x="3" y="10" width="1" height="1"></rect>
                    <path d="M1,10 L2,10 L2,11 L1,11 L1,10 Z" id="Rectangle-1-Copy-137"></path>
                    <rect id="Rectangle-1-Copy-146" x="1" y="9" width="1" height="1"></rect>
                    <path d="M0,9 L1,9 L1,10 L0,10 L0,9 Z" id="Rectangle-1-Copy-145"></path>
                    <rect id="Rectangle-1-Copy-144" x="1" y="8" width="1" height="1"></rect>
                    <path d="M0,8 L1,8 L1,9 L0,9 L0,8 Z" id="Rectangle-1-Copy-143"></path>
                    <rect id="Rectangle-1-Copy-150" x="5" y="9" width="1" height="1"></rect>
                    <path d="M4,9 L5,9 L5,10 L4,10 L4,9 Z" id="Rectangle-1-Copy-149"></path>
                    <rect id="Rectangle-1-Copy-148" x="5" y="8" width="1" height="1"></rect>
                    <path d="M4,8 L5,8 L5,9 L4,9 L4,8 Z" id="Rectangle-1-Copy-147"></path>
                    <rect id="Rectangle-1-Copy-154" x="5" y="7" width="1" height="1"></rect>
                    <path d="M4,7 L5,7 L5,8 L4,8 L4,7 Z" id="Rectangle-1-Copy-153"></path>
                    <rect id="Rectangle-1-Copy-152" x="5" y="6" width="1" height="1"></rect>
                    <path d="M4,6 L5,6 L5,7 L4,7 L4,6 Z" id="Rectangle-1-Copy-151"></path>
                    <rect id="Rectangle-1-Copy-158" x="5" y="5" width="1" height="1"></rect>
                    <path d="M4,5 L5,5 L5,6 L4,6 L4,5 Z" id="Rectangle-1-Copy-157"></path>
                    <rect id="Rectangle-1-Copy-156" x="5" y="4" width="1" height="1"></rect>
                    <path d="M4,4 L5,4 L5,5 L4,5 L4,4 Z" id="Rectangle-1-Copy-155"></path>
                    <rect id="Rectangle-1-Copy-162" x="5" y="3" width="1" height="1"></rect>
                    <path d="M4,3 L5,3 L5,4 L4,4 L4,3 Z" id="Rectangle-1-Copy-161"></path>
                    <rect id="Rectangle-1-Copy-160" x="5" y="2" width="1" height="1"></rect>
                    <path d="M4,2 L5,2 L5,3 L4,3 L4,2 Z" id="Rectangle-1-Copy-159"></path>
                    <rect id="Rectangle-1-Copy-166" x="2" y="1" width="1" height="1"></rect>
                    <path d="M1,1 L2,1 L2,2 L1,2 L1,1 Z" id="Rectangle-1-Copy-165"></path>
                    <rect id="Rectangle-1-Copy-164" x="2" y="0" width="1" height="1"></rect>
                    <path d="M1,0 L2,0 L2,1 L1,1 L1,0 Z" id="Rectangle-1-Copy-163"></path>
                    <path d="M0,10 L1,10 L1,11 L0,11 L0,10 Z" id="Rectangle-1-Copy-135"></path>
                </g>
            </g>
        </g>
    </g>
</svg>