<svg width="27" height="25" viewBox="0 0 27 25" xmlns="http://www.w3.org/2000/svg"><title>Github</title><path d="M13.42 0C6.242 0 .42 5.738.42 12.817c0 5.662 3.725 10.466 8.89 12.16.65.118.888-.277.888-.617 0-.304-.011-1.11-.018-2.18-3.616.774-4.379-1.718-4.379-1.718-.591-1.48-1.443-1.875-1.443-1.875-1.18-.795.089-.779.089-.779 1.305.09 1.991 1.321 1.991 1.321 1.16 1.958 3.043 1.393 3.784 1.065.118-.828.454-1.393.825-1.713-2.887-.324-5.922-1.423-5.922-6.335 0-1.399.507-2.543 1.339-3.439-.134-.324-.58-1.628.127-3.391 0 0 1.091-.345 3.575 1.313a12.619 12.619 0 0 1 3.254-.431c1.105.005 2.217.147 3.255.431 2.482-1.658 3.571-1.313 3.571-1.313.71 1.763.264 3.067.13 3.391.833.896 1.336 2.04 1.336 3.44 0 4.923-3.04 6.006-5.935 6.324.466.395.882 1.177.882 2.373 0 1.713-.016 3.096-.016 3.516 0 .343.235.742.894.617 5.162-1.7 8.883-6.5 8.883-12.16C26.421 5.738 20.6 0 13.42 0" fill="gray" fill-rule="evenodd"/></svg>