<svg width="20" height="12" viewBox="0 0 20 12" xmlns="http://www.w3.org/2000/svg"><title>Group</title><g fill="none" fill-rule="evenodd"><g fill="#5E548E"><path d="M12 1h1v1h-1zM7 6h1v1H7zM8 6h1v1H8zM11 2h1v1h-1zM9 0h1v1H9zM8 0h1v1H8zM7 3h1v1H7zM8 4h1v1H8zM9 6h1v1H9zM11 5h1v1h-1zM11 3h1v1h-1zM7 5h1v1H7zM8 2h1v1H8zM11 4h1v1h-1zM7 2h1v1H7zM7 4h1v1H7zM8 3h1v1H8zM8 5h1v1H8zM12 2h1v1h-1zM12 4h1v1h-1zM12 3h1v1h-1zM12 5h1v1h-1zM9 7h1v1H9zM10 7h1v1h-1zM10 6h1v1h-1zM8 7h1v1H8zM11 7h1v1h-1zM10 8h1v1h-1zM11 8h1v1h-1zM11 11h1v1h-1zM12 11h1v1h-1zM11 9h1v1h-1zM12 9h1v1h-1zM11 10h1v1h-1zM12 10h1v1h-1zM7 8h1v1H7zM8 8h1v1H8zM7 11h1v1H7zM8 11h1v1H8zM7 9h1v1H7zM8 9h1v1H8zM7 10h1v1H7zM8 10h1v1H8zM10 0h1v1h-1zM7 0h1v1H7z"/><path d="M9 0h1v1H9zM9 1h1v1H9zM8 1h1v1H8zM10 1h1v1h-1zM7 1h1v1H7z"/><path d="M9 1h1v1H9zM7 7h1v1H7zM11 6h1v1h-1zM12 6h1v1h-1zM11 1h1v1h-1z"/></g><g fill="#9F95CF"><path d="M19 1h1v1h-1zM14 6h1v1h-1zM15 6h1v1h-1zM18 2h1v1h-1zM16 0h1v1h-1zM15 0h1v1h-1zM14 3h1v1h-1zM15 4h1v1h-1zM16 6h1v1h-1zM18 5h1v1h-1zM18 3h1v1h-1zM14 5h1v1h-1zM15 2h1v1h-1zM18 4h1v1h-1zM14 2h1v1h-1zM14 4h1v1h-1zM15 3h1v1h-1zM15 5h1v1h-1zM19 2h1v1h-1zM19 4h1v1h-1zM19 3h1v1h-1zM19 5h1v1h-1zM16 7h1v1h-1zM17 7h1v1h-1zM17 6h1v1h-1zM15 7h1v1h-1zM18 7h1v1h-1zM17 8h1v1h-1zM18 8h1v1h-1zM18 11h1v1h-1zM19 11h1v1h-1zM18 9h1v1h-1zM19 9h1v1h-1zM18 10h1v1h-1zM19 10h1v1h-1zM14 8h1v1h-1zM15 8h1v1h-1zM14 11h1v1h-1zM15 11h1v1h-1zM14 9h1v1h-1zM15 9h1v1h-1zM14 10h1v1h-1zM15 10h1v1h-1zM17 0h1v1h-1zM14 0h1v1h-1z"/><path d="M16 0h1v1h-1zM16 1h1v1h-1zM15 1h1v1h-1zM17 1h1v1h-1zM14 1h1v1h-1z"/><path d="M16 1h1v1h-1zM14 7h1v1h-1zM18 6h1v1h-1zM19 6h1v1h-1zM18 1h1v1h-1z"/></g><g fill="#231942"><path d="M4 0h1v1H4zM5 0h1v1H5zM3 0h1v1H3z"/><path d="M4 0h1v1H4zM5 1h1v1H5zM3 0h1v1H3zM4 1h1v1H4V1zM3 1h1v1H3V1zM4 11h1v1H4zM5 10h1v1H5zM3 11h1v1H3z"/><path d="M4 11h1v1H4zM2 11h1v1H2zM3 11h1v1H3zM1 11h1v1H1v-1zM4 10h1v1H4zM3 10h1v1H3z"/><path d="M4 10h1v1H4zM2 10h1v1H2zM3 10h1v1H3zM1 10h1v1H1v-1zM1 9h1v1H1zM0 9h1v1H0V9zM1 8h1v1H1zM0 8h1v1H0V8zM5 9h1v1H5zM4 9h1v1H4V9zM5 8h1v1H5zM4 8h1v1H4V8zM5 7h1v1H5zM4 7h1v1H4V7zM5 6h1v1H5zM4 6h1v1H4V6zM5 5h1v1H5zM4 5h1v1H4V5zM5 4h1v1H5zM4 4h1v1H4V4zM5 3h1v1H5zM4 3h1v1H4V3zM5 2h1v1H5zM4 2h1v1H4V2zM2 1h1v1H2zM1 1h1v1H1V1zM2 0h1v1H2zM1 0h1v1H1V0zM0 10h1v1H0v-1z"/></g></g></svg>