<svg width="25" height="25" viewBox="0 0 25 25" xmlns="http://www.w3.org/2000/svg"><title>fa-envelope-o</title><path d="M12.5 25C19.404 25 25 19.404 25 12.5S19.404 0 12.5 0 0 5.596 0 12.5 5.596 25 12.5 25zm-8.68-5.803c.337.318.73.486 1.178.486h15.375c.45 0 .842-.168 1.179-.486.318-.337.486-.73.486-1.179V6.664c0-.448-.168-.841-.486-1.178-.337-.318-.73-.486-1.179-.486H4.998c-.449 0-.841.168-1.178.486-.318.337-.487.73-.487 1.178v11.354c0 .45.169.842.487 1.179zm.842-9.184c.224.243.467.467.729.673 1.851 1.44 3.348 2.619 4.451 3.536.356.299.636.541.861.691.225.169.524.337.898.505.374.169.748.262 1.066.262h.037c.319 0 .693-.093 1.067-.262.374-.168.673-.336.897-.505.225-.15.525-.392.88-.691 1.085-.917 2.58-2.095 4.433-3.536.261-.206.505-.43.729-.674v8.006a.397.397 0 0 1-.093.244.397.397 0 0 1-.244.093H4.998a.395.395 0 0 1-.243-.093.397.397 0 0 1-.093-.244v-8.006zm.093-3.591a.39.39 0 0 1 .243-.095h15.375a.36.36 0 0 1 .15.02.224.224 0 0 1 .094.093c.018.02.037.056.055.093.02.02.038.057.038.131v.393c0 .412-.168.86-.487 1.365-.317.505-.673.917-1.047 1.216a319.471 319.471 0 0 0-4.19 3.311c-.037.02-.168.131-.373.3-.188.168-.356.298-.468.393-.132.093-.28.206-.468.336-.187.112-.374.225-.524.28a1.47 1.47 0 0 1-.449.095h-.037c-.131 0-.28-.038-.449-.095-.15-.055-.336-.168-.524-.28-.187-.13-.337-.243-.467-.336-.113-.095-.281-.225-.468-.394-.206-.168-.337-.28-.374-.299a319.4 319.4 0 0 0-4.19-3.31c-1.028-.823-1.533-1.815-1.533-2.975 0-.093.037-.168.093-.242z" fill="gray" fill-rule="evenodd"/></svg>