<svg width="65" height="85" viewBox="0 0 65 85" xmlns="http://www.w3.org/2000/svg"><title>PDF</title><defs><linearGradient x1="100%" y1="45.953%" x2="0%" y2="45.953%" id="a"><stop stop-color="#BFD0E0" offset="0%"/><stop stop-color="#90D7FF" offset="100%"/></linearGradient></defs><path d="M4 6a2 2 0 0 1 1.995-2h53.01C60.107 4 61 4.891 61 6v73a2 2 0 0 1-1.995 2H5.995A1.995 1.995 0 0 1 4 79V6zm61 8v8a2 2 0 1 0-4 0v-8a2 2 0 1 0 4 0zM0 4c0-2.21 1.79-4 3.993-4h57.014A3.999 3.999 0 0 1 65 4v77c0 2.21-1.79 4-3.993 4H3.993A3.999 3.999 0 0 1 0 81V4zm21 13c0-1.105.9-2 1.992-2h7.016c1.1 0 1.992.888 1.992 2 0 1.105-.9 2-1.992 2h-7.016c-1.1 0-1.992-.888-1.992-2zm14 10c0-1.105.895-2 1.994-2h12.012c1.101 0 1.994.888 1.994 2 0 1.105-.895 2-1.994 2H36.994A1.992 1.992 0 0 1 35 27zm-25 0c0-1.105.89-2 1.991-2H30.01c1.1 0 1.991.888 1.991 2 0 1.105-.89 2-1.991 2H11.99A1.99 1.99 0 0 1 10 27zm25 10a2 2 0 0 1 1.99-2h16.02c1.099 0 1.99.888 1.99 2a2 2 0 0 1-1.99 2H36.99A1.99 1.99 0 0 1 35 37zm0-20a2 2 0 0 1 1.99-2h16.02c1.099 0 1.99.888 1.99 2a2 2 0 0 1-1.99 2H36.99A1.99 1.99 0 0 1 35 17zM10 37c0-1.105.895-2 1.994-2h12.012c1.101 0 1.994.888 1.994 2 0 1.105-.895 2-1.994 2H11.994A1.992 1.992 0 0 1 10 37zm0 27c0-6.075 4.923-11 11.008-11h22.984C50.072 53 55 57.924 55 64c0 6.075-4.923 11-11.008 11H21.008C14.928 75 10 70.076 10 64zm10.59-4.331V69h1.976v-3.056h1.805c2.058 0 3.213-1.346 3.213-3.124 0-1.757-1.142-3.151-3.192-3.151H20.59zm1.97 1.552h1.421c.992 0 1.593.574 1.593 1.6 0 1.21-.745 1.592-1.969 1.592H22.56v-3.192zm7.282-1.552V69h3.493c3.021 0 4.184-1.955 4.184-4.696 0-2.748-1.17-4.635-4.184-4.635h-3.493zm1.982 1.6h1.224c1.887 0 2.44 1.333 2.44 3.076 0 2.283-.916 3.055-2.44 3.055h-1.224V61.27zM41.957 69v-3.65h3.698v-1.58h-3.698v-2.488h4.054V59.67h-6.036V69h1.982zM10 13.01A4.008 4.008 0 0 1 14 9a4 4 0 0 1 4 4.01v1.98A4.008 4.008 0 0 1 14 19a4 4 0 0 1-4-4.01v-1.98zm3 0a1 1 0 1 1 2 0v1.98a1 1 0 1 1-2 0v-1.98z" fill="url(#a)" fill-rule="evenodd"/></svg>