<svg width="99" height="97" viewBox="0 0 99 97" xmlns="http://www.w3.org/2000/svg"><title>ryan copy 2</title><g fill="none" fill-rule="evenodd"><path fill="#000" d="M54.507 0v16.032h-3.206V0zM57.714 0v16.032h-3.206V0zM64.126 0v16.032H60.92V0z"/><path fill="#FFF" d="M38.476 35.27h16.032v3.206H38.476z"/><path fill="#000" d="M28.857 0v12.825H25.65V0zM48.095 0v12.825h-3.206V0zM51.3 0v12.825h-3.205V0zM28.857 12.825V25.65H25.65V12.825zM35.27 41.682h12.825v3.206H35.27zM35.27 12.825h6.413v3.206H35.27zM70.539 38.476h6.413v3.206h-6.413zM64.127 28.857h6.413v3.206h-6.413zM57.714 25.651h6.413v3.206h-6.413zM48.095 41.682h6.413v3.206h-6.413zM25.65 12.825v9.62h-3.206v-9.62z"/><path fill="#000" d="M25.65 3.206v9.62h-3.206v-9.62zM41.683 0v9.62h-3.206V0zM60.92 0v9.62h-3.205V0zM60.92 9.62v9.618h-3.205V9.62zM67.333 3.206v9.619h-3.206V3.206zM60.92 28.857v9.62h-3.205v-9.62zM76.952 41.682v9.619h-3.206v-9.619zM44.889 0v9.619h-3.206V0zM6.413 41.682h9.619v3.206H6.413zM12.825 38.476h9.619v3.206h-9.619z"/><path fill="#FFF" d="M38.476 32.063h9.619v3.206h-9.619z"/><path fill="#000" d="M60.92 35.27h9.619v3.206H60.92zM22.444 32.064v6.413h-3.206v-6.413zM32.064 0v6.413h-3.206V0zM38.476 0v6.413H35.27V0zM57.714 19.238v6.413h-3.206v-6.413zM48.095 19.238v6.413H44.89v-6.413z"/><path fill="#000" d="M32.063 0h3.206v3.206h-3.206zM41.682 16.032h3.206v3.206h-3.206zM73.746 35.27h3.206v3.206h-3.206zM70.539 32.063h3.206v3.206h-3.206zM16.032 35.27h3.206v3.206h-3.206zM28.857 28.857v6.413h-3.206v-6.413zM22.444 28.857h3.206v3.206h-3.206zM32.063 38.476h3.206v3.206h-3.206zM54.508 38.476h3.206v3.206h-3.206zM28.857 35.27h3.206v3.206h-3.206zM19.238 41.682h3.206v3.206h-3.206z"/><path fill="#006CF0" d="M22.444 41.682h12.825v3.206H22.444zM22.444 35.27h6.413v3.206h-6.413z"/><path fill="#006CF0" d="M22.444 38.476h9.619v3.206h-9.619zM60.92 32.063h9.619v3.206H60.92zM22.444 32.063h3.206v3.206h-3.206zM60.92 28.857h3.206v3.206H60.92zM70.539 35.27h3.206v3.206h-3.206z"/><path fill="#FE735B" d="M28.857 25.651h16.032v3.206H28.857zM28.857 28.857h16.032v3.206H28.857zM44.889 16.032h12.825v3.206H44.889zM57.714 38.476h12.825v3.206H57.714zM44.889 25.651h12.825v3.206H44.889zM44.889 28.857h12.825v3.206H44.889zM28.857 12.825h6.413v3.206h-6.413zM28.857 16.032h6.413v3.206h-6.413zM28.857 19.238h6.413v3.206h-6.413zM28.857 22.444h6.413v3.206h-6.413zM38.476 9.619h6.413v3.206h-6.413zM32.063 35.27h6.413v3.206h-6.413zM22.444 25.651h6.413v3.206h-6.413zM48.095 19.238h6.413v3.206h-6.413zM48.095 22.444h6.413v3.206h-6.413zM28.857 6.413h9.619v3.206h-9.619zM28.857 9.619h9.619v3.206h-9.619zM54.508 41.682h9.619v3.206h-9.619z"/><path fill="#FE735B" d="M64.127 41.682h9.619v3.206h-9.619zM41.682 12.825h9.619v3.206h-9.619zM48.095 32.063h9.619v3.206h-9.619zM28.857 32.063h9.619v3.206h-9.619zM35.27 38.476h9.619v3.206H35.27zM44.889 38.476h9.619v3.206h-9.619zM32.063 3.206h3.206v3.206h-3.206zM22.444 22.444h3.206v3.206h-3.206zM54.508 35.27h3.206v3.206h-3.206zM16.032 41.682h3.206v3.206h-3.206z"/><path fill="#000" d="M28.857 92.984h6.413v3.206h-6.413zM48.095 64.127h16.032v3.206H48.095zM48.095 44.889H60.92v3.206H48.095z"/><path fill="#000" d="M48.095 44.889h3.206v3.206h-3.206zM64.126 48.095V60.92H60.92V48.095zM22.444 51.301h12.825v3.206H22.444zM32.063 54.508h12.825v3.206H32.063zM35.27 60.92h12.825v3.206H35.27zM19.238 48.095h6.413v3.206h-6.413z"/><path fill="#000" d="M16.032 44.889h6.413v3.206h-6.413zM6.413 60.92h6.413v3.206H6.413zM12.825 54.508h6.413v3.206h-6.413zM16.032 51.301h6.413v3.206h-6.413zM48.095 67.333h6.413v3.206h-6.413zM3.207 48.095v9.62H0v-9.62z"/><path fill="#000" d="M16.032 57.714v9.619h-3.206v-9.619zM35.27 57.714h9.619v3.206H35.27zM38.476 64.127h9.619v3.206h-9.619zM44.889 48.095h3.206v3.206h-3.206zM57.714 60.92h3.206v3.206h-3.206zM64.127 60.92h3.206v3.206h-3.206zM73.746 60.92h3.206v3.206h-3.206z"/><path fill="#FE735B" d="M3.206 48.095h16.032v3.206H3.206zM44.889 51.301h16.032v3.206H44.889zM44.889 54.508h16.032v3.206H44.889z"/><path fill="#FE735B" d="M44.889 57.714h16.032v3.206H44.889zM3.206 51.301h12.825v3.206H3.206zM48.095 48.095H60.92v3.206H48.095zM60.92 44.889h12.825v3.206H60.92zM48.095 60.92h9.619v3.206h-9.619z"/><path fill="#FE735B" d="M64.127 48.095h9.619v3.206h-9.619zM3.206 54.508h9.619v3.206H3.206zM6.413 44.889h9.619v3.206H6.413z"/><path fill="#FE735B" d="M6.413 57.714h6.413v3.206H6.413zM64.127 51.301h6.413v3.206h-6.413zM64.127 54.508h6.413v3.206h-6.413z"/><path fill="#006CF0" d="M35.27 51.301h6.413v3.206H35.27z"/><path fill="#FE735B" d="M60.92 60.92h3.206v3.206H60.92zM64.127 57.714h3.206v3.206h-3.206z"/><path fill="#000" d="M3.206 44.889h3.206v3.206H3.206zM3.206 57.714h3.206v3.206H3.206zM41.682 51.301h3.206v3.206h-3.206zM38.476 67.333h6.413v3.206h-6.413zM41.682 73.746h3.206v3.206h-3.206zM41.682 70.539h3.206v3.206h-3.206zM35.27 92.984h6.413v3.206H35.27zM51.301 76.952h6.413v3.206h-6.413zM44.889 73.746h6.413v3.206h-6.413zM38.476 89.777h6.413v3.206h-6.413zM32.063 89.777h6.413v3.206h-6.413z"/><path fill="#000" d="M25.651 89.777h6.413v3.206h-6.413zM38.476 86.571h6.413v3.206h-6.413zM32.063 86.571h6.413v3.206h-6.413z"/><path fill="#000" d="M25.651 86.571h6.413v3.206h-6.413zM38.476 83.365h6.413v3.206h-6.413zM28.857 80.158h16.032v3.206H28.857zM76.952 86.571h16.032v3.206H76.952zM35.27 76.952h9.619v3.206H35.27zM57.714 80.158h9.619v3.206h-9.619zM67.333 57.714h9.619v3.206h-9.619zM82.964 67.333h9.619v3.206h-9.619zM98.996 73.345v9.619H95.79v-9.619zM76.952 64.127h9.619v3.206h-9.619zM67.333 83.365h9.619v3.206h-9.619zM32.063 83.365h6.413v3.206h-6.413zM89.377 83.365h6.413v3.206h-6.413zM82.964 83.365h6.413v3.206h-6.413zM89.377 70.539h6.413v3.206h-6.413zM82.964 70.539h6.413v3.206h-6.413zM73.745 51.301v6.413H70.54v-6.413zM19.238 67.334v6.413h-3.206v-6.413zM22.444 73.746v6.413h-3.206v-6.413zM25.651 80.158v3.206h-3.206v-3.206zM76.952 44.89v6.412h-3.206V44.89zM89.377 73.746h6.413v3.206h-6.413zM82.964 73.746h6.413v3.206h-6.413zM89.377 76.952h6.413v3.206h-6.413zM82.964 76.952h6.413v3.206h-6.413zM89.377 80.158h6.413v3.206h-6.413zM82.964 80.158h6.413v3.206h-6.413z"/><path fill="#000" d="M25.651 83.365h6.413v3.206h-6.413z"/><path fill="#006CF0" d="M35.27 44.889h12.825v3.206H35.27zM22.444 44.889h12.825v3.206H22.444z"/><path fill="#006CF0" d="M35.27 48.095h9.619v3.206H35.27zM25.651 48.095h9.619v3.206h-9.619z"/><g fill="#000"><path d="M38.476 32.064v6.413H35.27v-6.413zM35.27 32.063v6.413h-3.206v-6.413zM32.063 28.857v6.413h-3.206v-6.413z"/><path d="M32.064 22.445v6.413h-3.206v-6.413zM35.27 28.857v6.413h-3.206v-6.413zM38.476 38.476v6.413H35.27v-6.413z"/><path d="M38.476 41.683v3.206H35.27v-3.206zM54.508 32.063v6.413h-3.206v-6.413z"/><path d="M54.507 35.27v6.412h-3.206V35.27zM57.714 32.064v6.413h-3.206v-6.413z"/><path d="M57.714 28.857v6.413h-3.206v-6.413zM51.301 32.063v3.206h-3.206v-3.206zM48.095 38.476h3.206v6.413h-3.206zM48.095 38.476v9.619h-3.206v-9.62z"/><path d="M44.889 38.476v9.619h-3.206v-9.619zM41.682 38.476v9.62h-3.206v-9.62zM38.476 28.857h9.619v3.206h-9.619z"/></g></g></svg>