<?xml version="1.0" encoding="UTF-8" standalone="no"?>
<svg width="27px" height="25px" viewBox="0 0 27 25" version="1.1" xmlns="http://www.w3.org/2000/svg" xmlns:xlink="http://www.w3.org/1999/xlink" xmlns:sketch="http://www.bohemiancoding.com/sketch/ns">
    <!-- Generator: Sketch 3.5.2 (25235) - http://www.bohemiancoding.com/sketch -->
    <title>Github</title>
    <desc>Created with Sketch.</desc>
    <defs></defs>
    <g id="Page-1" stroke="none" stroke-width="1" fill="none" fill-rule="evenodd" sketch:type="MSPage">
        <g id="Artboard-1" sketch:type="MSArtboardGroup" transform="translate(-345.000000, -75.000000)" fill="#808080">
            <g id="Github" sketch:type="MSLayerGroup" transform="translate(345.000000, 75.000000)">
                <path d="M13.4198029,0 C6.24205037,0 0.421,5.73802563 0.421,12.8167335 C0.421,18.4792277 4.14554649,23.2825524 9.31138951,24.977288 C9.9618085,25.0953058 10.1988323,24.6995528 10.1988323,24.3596615 C10.1988323,24.0559624 10.1876595,23.2495074 10.181275,22.1802661 C6.56526471,22.9544629 5.80231925,20.4619268 5.80231925,20.4619268 C5.21095672,18.9811968 4.35862853,18.5870173 4.35862853,18.5870173 C3.17829765,17.7923641 4.44801126,17.8080998 4.44801126,17.8080998 C5.75283953,17.8985801 6.43917121,19.1291124 6.43917121,19.1291124 C7.59875254,21.0874212 9.48217438,20.5217225 10.2227741,20.193633 C10.340887,19.3659348 10.6768703,18.8010229 11.0479683,18.4808013 C8.16138491,18.1574325 5.12636235,17.0575066 5.12636235,12.1463924 C5.12636235,10.747488 5.63313051,9.60271531 6.46470914,8.70735357 C6.33063504,8.383198 5.88451945,7.07949466 6.59239875,5.31552189 C6.59239875,5.31552189 7.68334691,4.9709099 10.1669099,6.62945344 C11.20359,6.34463714 12.3160858,6.20301577 13.421399,6.19750828 C14.5259142,6.20301577 15.6376119,6.34463714 16.6758881,6.62945344 C19.157855,4.9709099 20.2472071,5.31552189 20.2472071,5.31552189 C20.9566825,7.07949466 20.5105669,8.383198 20.3772909,8.70735357 C21.2104656,9.60271531 21.7132435,10.747488 21.7132435,12.1463924 C21.7132435,17.0700952 18.6734325,18.1534986 15.7780705,18.4705731 C16.2441376,18.8663261 16.6599269,19.6483908 16.6599269,20.8443045 C16.6599269,22.5571363 16.6439657,23.9395181 16.6439657,24.3596615 C16.6439657,24.7026999 16.8785954,25.1016001 17.537793,24.9765012 C22.6996458,23.2778316 26.421,18.4776542 26.421,12.8167335 C26.421,5.73802563 20.5999496,0 13.4198029,0" id="Fill-3" sketch:type="MSShapeGroup"></path>
            </g>
        </g>
    </g>
</svg>