<?xml version="1.0" encoding="UTF-8" standalone="no"?>
<svg width="65px" height="85px" viewBox="0 0 65 85" version="1.1" xmlns="http://www.w3.org/2000/svg" xmlns:xlink="http://www.w3.org/1999/xlink">
    <!-- Generator: Sketch 3.6.1 (26313) - http://www.bohemiancoding.com/sketch -->
    <title>PDF</title>
    <desc>Created with Sketch.</desc>
    <defs>
        <linearGradient x1="100%" y1="45.9525591%" x2="0%" y2="45.9525585%" id="linearGradient-1">
            <stop stop-color="#BFD0E0" offset="0%"></stop>
            <stop stop-color="#90D7FF" offset="100%"></stop>
        </linearGradient>
    </defs>
    <g id="Page-1" stroke="none" stroke-width="1" fill="none" fill-rule="evenodd">
        <g id="Artboard-1" transform="translate(-19.000000, -100.000000)" fill="url(#linearGradient-1)">
            <g id="PDF" transform="translate(19.000000, 100.000000)">
                <path d="M4,6.00032778 C4,4.89557725 4.89533389,4 5.99523815,4 L59.0047619,4 C60.1067015,4 61,4.89137456 61,6.00032778 L61,78.9996722 C61,80.1044227 60.1046661,81 59.0047619,81 L5.99523815,81 C4.89329855,81 4,80.1086254 4,78.9996722 L4,6.00032778 Z M65,14 L65,22 C65,20.8954305 64.1045695,20 63,20 C61.8954305,20 61,20.8954305 61,22 L61,14 C61,15.1045695 61.8954305,16 63,16 C64.1045695,16 65,15.1045695 65,14 Z M0,3.99989145 C0,1.7908124 1.78927099,0 3.99255897,0 L61.007441,0 C63.2124705,0 65,1.79495748 65,3.99989145 L65,81.0001086 C65,83.2091876 63.210729,85 61.007441,85 L3.99255897,85 C1.78752954,85 0,83.2050425 0,81.0001086 L0,3.99989145 Z M21,17 C21,15.8954305 21.9001762,15 22.992017,15 L30.007983,15 C31.1081436,15 32,15.8877296 32,17 C32,18.1045695 31.0998238,19 30.007983,19 L22.992017,19 C21.8918564,19 21,18.1122704 21,17 Z M35,27 C35,25.8954305 35.8945138,25 36.9940603,25 L49.0059397,25 C50.1072288,25 51,25.8877296 51,27 C51,28.1045695 50.1054862,29 49.0059397,29 L36.9940603,29 C35.8927712,29 35,28.1122704 35,27 Z M10,27 C10,25.8954305 10.8896739,25 11.991155,25 L30.008845,25 C31.1085295,25 32,25.8877296 32,27 C32,28.1045695 31.1103261,29 30.008845,29 L11.991155,29 C10.8914705,29 10,28.1122704 10,27 Z M35,37 C35,35.8954305 35.8982124,35 36.9907951,35 L53.0092049,35 C54.1086907,35 55,35.8877296 55,37 C55,38.1045695 54.1017876,39 53.0092049,39 L36.9907951,39 C35.8913093,39 35,38.1122704 35,37 Z M35,17 C35,15.8954305 35.8982124,15 36.9907951,15 L53.0092049,15 C54.1086907,15 55,15.8877296 55,17 C55,18.1045695 54.1017876,19 53.0092049,19 L36.9907951,19 C35.8913093,19 35,18.1122704 35,17 Z M10,37 C10,35.8954305 10.8945138,35 11.9940603,35 L24.0059397,35 C25.1072288,35 26,35.8877296 26,37 C26,38.1045695 25.1054862,39 24.0059397,39 L11.9940603,39 C10.8927712,39 10,38.1122704 10,37 Z M10,64 C10,57.9248678 14.922963,53 21.0082384,53 L43.9917616,53 C50.0714438,53 55,57.923532 55,64 C55,70.0751322 50.077037,75 43.9917616,75 L21.0082384,75 C14.9285562,75 10,70.076468 10,64 Z M20.5908203,59.6689453 L20.5908203,69 L22.5664062,69 L22.5664062,65.9443359 L24.3710938,65.9443359 C26.4287109,65.9443359 27.5839844,64.5976562 27.5839844,62.8203125 C27.5839844,61.0634766 26.4423828,59.6689453 24.3916016,59.6689453 L20.5908203,59.6689453 Z M22.5595703,61.2207031 L23.9814453,61.2207031 C24.9726562,61.2207031 25.5742188,61.7949219 25.5742188,62.8203125 C25.5742188,64.0302734 24.8291016,64.4130859 23.6054688,64.4130859 L22.5595703,64.4130859 L22.5595703,61.2207031 Z M29.8417969,59.6689453 L29.8417969,69 L33.3349609,69 C36.3564453,69 37.5185547,67.0449219 37.5185547,64.3037109 C37.5185547,61.5556641 36.3496094,59.6689453 33.3349609,59.6689453 L29.8417969,59.6689453 Z M31.8242188,61.2685547 L33.0478516,61.2685547 C34.9345703,61.2685547 35.4882812,62.6015625 35.4882812,64.3447266 C35.4882812,66.6279297 34.5722656,67.4003906 33.0478516,67.4003906 L31.8242188,67.4003906 L31.8242188,61.2685547 Z M41.9570312,69 L41.9570312,65.3496094 L45.6552734,65.3496094 L45.6552734,63.7705078 L41.9570312,63.7705078 L41.9570312,61.2822266 L46.0107422,61.2822266 L46.0107422,59.6689453 L39.9746094,59.6689453 L39.9746094,69 L41.9570312,69 Z M10,13.009763 C10,10.795232 11.7953562,9 14,9 C16.209139,9 18,10.7877996 18,13.009763 L18,14.990237 C18,17.204768 16.2046438,19 14,19 C11.790861,19 10,17.2122004 10,14.990237 L10,13.009763 Z M13,13.0093689 C13,12.4519098 13.4438648,12 14,12 C14.5522847,12 15,12.4433532 15,13.0093689 L15,14.9906311 C15,15.5480902 14.5561352,16 14,16 C13.4477153,16 13,15.5566468 13,14.9906311 L13,13.0093689 Z" id="ICN"></path>
            </g>
        </g>
    </g>
</svg>